<?xml version="1.0" standalone="no"?><svg xmlns="http://www.w3.org/2000/svg" viewBox="0 0 1440 320"><path fill="#a2d9ff" fill-opacity="1" d="M0,192L11.4,208C22.9,224,46,256,69,261.3C91.4,267,114,245,137,240C160,235,183,245,206,218.7C228.6,192,251,128,274,106.7C297.1,85,320,107,343,106.7C365.7,107,389,85,411,96C434.3,107,457,149,480,149.3C502.9,149,526,107,549,80C571.4,53,594,43,617,64C640,85,663,139,686,165.3C708.6,192,731,192,754,213.3C777.1,235,800,277,823,272C845.7,267,869,213,891,202.7C914.3,192,937,224,960,213.3C982.9,203,1006,149,1029,160C1051.4,171,1074,245,1097,256C1120,267,1143,213,1166,186.7C1188.6,160,1211,160,1234,154.7C1257.1,149,1280,139,1303,122.7C1325.7,107,1349,85,1371,64C1394.3,43,1417,21,1429,10.7L1440,0L1440,320L1428.6,320C1417.1,320,1394,320,1371,320C1348.6,320,1326,320,1303,320C1280,320,1257,320,1234,320C1211.4,320,1189,320,1166,320C1142.9,320,1120,320,1097,320C1074.3,320,1051,320,1029,320C1005.7,320,983,320,960,320C937.1,320,914,320,891,320C868.6,320,846,320,823,320C800,320,777,320,754,320C731.4,320,709,320,686,320C662.9,320,640,320,617,320C594.3,320,571,320,549,320C525.7,320,503,320,480,320C457.1,320,434,320,411,320C388.6,320,366,320,343,320C320,320,297,320,274,320C251.4,320,229,320,206,320C182.9,320,160,320,137,320C114.3,320,91,320,69,320C45.7,320,23,320,11,320L0,320Z"></path></svg>